<svg width="19" height="20" viewBox="0 0 19 20" fill="none" xmlns="http://www.w3.org/2000/svg">
<path fill-rule="evenodd" clip-rule="evenodd" d="M17.9382 5.66933C16.512 2.24469 13.1704 0.0100374 9.46066 0.000128852C5.46246 -0.0209255 1.90737 2.54006 0.661047 6.3391C-0.585272 10.1381 0.761902 14.3074 3.99559 16.6588C7.22927 19.0103 11.6107 19.0068 14.8407 16.6501L17.7207 19.5301C18.0135 19.8226 18.4878 19.8226 18.7807 19.5301C19.0731 19.2373 19.0731 18.7629 18.7807 18.4701L15.9907 15.6801C18.5968 13.04 19.3644 9.09396 17.9382 5.66933ZM16.6006 12.1687C15.4032 15.0544 12.5845 16.9338 9.46021 16.9298V16.8898C5.21992 16.8844 1.77767 13.46 1.75021 9.2198C1.74617 6.09554 3.6256 3.27685 6.51127 2.07937C9.39694 0.8819 12.7199 1.54175 14.9291 3.75095C17.1383 5.96014 17.7981 9.28307 16.6006 12.1687Z" fill="#979797"/>
</svg>
